PathFileType  4	(X/Y/Z) C:\Users\antoi\Documents\MyRepositories\mobilecap\ResultsAnalysis
DataRate	CameraRate	NumFrames	NumMarkers	Units	OrigDataRate	OrigDataStartFrame	OrigNumFrames
100.0	100.0	4	51	mm	100.0	148	197
Frame#	Time	r_knee			r_shank_antsup			r_ankle			r_calc			r_5meta			r_toe			L_knee			L_shank_antsup			L_ankle			L_calc			L_5meta			L_toe			r_sh2			r_sh3			r_sh4			L_sh2			L_sh3			r_thigh1			r_thigh2			r_thigh3			r_thigh4			r_thigh5			L_thigh1			L_thigh2			L_thigh3			L_thigh4			r.ASIS			r.PSIS			L.ASIS			L.PSIS			C7			R_Shoulder			L_Shoulder			R_Sternum			L_Sternum			R_humerus			R_elbow_med			R_elbow_lat			R_forearm			R_wrist_radius			R_wrist_ulna			L_humerus			L_elbow_med			L_elbow_lat			L_forearm			L_wrist_radius			L_wrist_ulna			R_HJC			L_HJC			R_HJC_reg			L_HJC_reg			
		X1	Y1	Z1	X2	Y2	Z2	X3	Y3	Z3	X4	Y4	Z4	X5	Y5	Z5	X6	Y6	Z6	X7	Y7	Z7	X8	Y8	Z8	X9	Y9	Z9	X10	Y10	Z10	X11	Y11	Z11	X12	Y12	Z12	X13	Y13	Z13	X14	Y14	Z14	X15	Y15	Z15	X16	Y16	Z16	X17	Y17	Z17	X18	Y18	Z18	X19	Y19	Z19	X20	Y20	Z20	X21	Y21	Z21	X22	Y22	Z22	X23	Y23	Z23	X24	Y24	Z24	X25	Y25	Z25	X26	Y26	Z26	X27	Y27	Z27	X28	Y28	Z28	X29	Y29	Z29	X30	Y30	Z30	X31	Y31	Z31	X32	Y32	Z32	X33	Y33	Z33	X34	Y34	Z34	X35	Y35	Z35	X36	Y36	Z36	X37	Y37	Z37	X38	Y38	Z38	X39	Y39	Z39	X40	Y40	Z40	X41	Y41	Z41	X42	Y42	Z42	X43	Y43	Z43	X44	Y44	Z44	X45	Y45	Z45	X46	Y46	Z46	X47	Y47	Z47	X48	Y48	Z48	X49	Y49	Z49	X50	Y50	Z50	X51	Y51	Z51	

148	1.47000000	-169.42655	529.56992	-365.70964	-127.73558	456.42873	-376.67278	-247.18379	134.67705	-364.49996	-327.11978	128.71886	-399.53522	-170.79428	50.75424	-336.85791	-115.32211	62.20477	-391.27195	-187.80999	576.50321	-752.50410	-157.07523	483.35691	-773.68835	-261.14575	184.99616	-778.56701	-329.67750	183.17337	-727.04638	-196.14538	73.02623	-810.62283	-140.90829	87.10256	-767.92186	-166.97792	350.02020	-349.50342	-204.30059	483.49843	-350.93155	-237.03218	375.17633	-342.70429	-243.70075	505.82499	-766.58194	-263.03598	386.02662	-783.18803	-188.56395	849.08733	-351.44418	-167.17008	738.38731	-351.17899	-220.97940	703.69821	-334.48786	-299.28336	824.33607	-361.23806	-271.89425	710.35198	-357.66143	-214.26909	852.39427	-764.97738	-172.33549	719.62114	-760.36797	-318.03961	815.69425	-720.78044	-270.71896	684.35303	-733.39628	-172.19932	976.46999	-402.98604	-347.99650	1065.89614	-473.81034	-177.94279	1006.81223	-651.78659	-357.96136	1091.04069	-569.43037	-180.14296	1465.90968	-516.82108	-93.95963	1424.35072	-350.20464	-96.98056	1424.92406	-675.03561	-46.70546	1395.08297	-484.91212	-41.85231	1396.79542	-532.44792	-135.40222	1312.33371	-266.34115	-245.84196	1118.37043	-273.83584	-216.00432	1139.43982	-208.15546	-85.36929	1087.21432	-240.68805	22.96654	1041.90554	-279.55307	23.79908	1008.22767	-267.81089	-96.46330	1347.05390	-761.65724	-213.52338	1148.18384	-838.78029	-148.22493	1181.83519	-880.19281	-83.37954	1159.46292	-795.97935	-2.48052	1110.13422	-680.05110	17.34517	1092.12869	-704.53570	-267.62129	921.12816	-437.00471	-268.78754	950.82294	-641.33559	-251.52066	910.86907	-447.15729	-268.11557	952.75260	-606.33155	
149	1.48000000	-185.40961	542.38777	-367.27340	-142.35200	471.30562	-377.30043	-242.23963	142.16043	-361.10508	-319.43675	141.51063	-397.03053	-168.44557	52.85445	-335.62838	-112.45123	61.73510	-389.80530	-193.53001	594.62136	-752.20054	-160.70974	501.04051	-774.77900	-261.27090	200.37744	-777.75389	-329.51634	194.32806	-726.00580	-191.29273	91.52991	-811.25119	-136.43709	109.15882	-769.55699	-175.51704	363.44528	-348.33627	-220.09033	494.56618	-351.84161	-246.58465	384.13374	-342.65128	-247.42402	522.93271	-766.23868	-266.34798	403.02191	-782.96416	-184.05041	862.45019	-351.12579	-169.75923	750.53922	-351.81476	-225.50805	719.18266	-334.58779	-296.11745	844.76626	-360.11804	-276.16219	729.32010	-357.35126	-212.68633	870.96216	-763.85027	-174.06478	737.46424	-760.22597	-317.18609	836.81716	-719.35170	-273.20765	704.54206	-732.57249	-163.18613	999.30842	-401.36983	-340.11925	1083.70166	-470.80047	-173.20392	1030.27067	-649.92632	-352.83207	1110.02377	-564.43812	-181.27724	1488.69564	-516.64264	-96.92828	1445.91194	-350.14136	-101.11582	1446.15081	-674.72611	-48.17334	1417.51387	-484.37436	-43.50691	1419.52141	-532.82085	-137.78472	1333.04368	-267.80201	-255.63679	1143.73579	-281.07821	-225.83613	1160.74966	-213.36936	-99.21469	1095.30632	-238.58480	6.37578	1040.09004	-272.88402	3.40329	1006.36740	-261.17179	-97.66299	1366.48777	-759.04526	-217.51293	1163.69844	-829.60592	-151.63836	1195.61991	-872.91498	-85.95339	1169.95541	-789.53780	-5.40328	1118.59695	-676.45423	13.33781	1100.05579	-699.99153	-257.14580	941.50544	-434.59077	-261.76535	971.97137	-638.74894	-239.83257	929.82158	-445.46056	-261.25537	974.19349	-603.41981	
150	1.49000000	-201.50586	556.38050	-369.00183	-157.44043	487.96384	-378.15649	-234.34878	151.99021	-357.18521	-308.05024	157.82844	-394.51445	-165.32418	55.50338	-334.63828	-108.47565	61.41966	-387.93457	-195.03201	612.91072	-751.77734	-163.10758	519.08105	-775.33254	-261.55216	217.38554	-776.60358	-329.31874	207.28920	-723.54640	-188.37386	112.67222	-814.09039	-133.64241	131.25019	-772.65232	-183.46469	378.66745	-347.36484	-236.46931	506.37753	-352.99897	-255.67149	394.47020	-342.76922	-249.77207	540.85963	-765.49983	-268.94116	420.83702	-781.70731	-180.00084	875.90183	-351.13887	-172.66433	763.05125	-352.83287	-230.13131	735.21702	-334.84242	-292.77664	865.18837	-358.97581	-280.31467	748.68287	-357.14383	-211.27678	889.33692	-762.72976	-174.31611	755.62791	-759.78016	-316.11092	856.62883	-717.77263	-273.74335	723.86949	-731.41176	-154.68611	1021.67180	-400.99944	-333.50117	1101.68164	-466.59132	-169.13252	1052.97517	-648.23745	-348.52370	1128.13511	-559.41190	-182.24678	1509.85247	-516.80879	-100.02032	1465.88576	-350.01013	-104.56123	1465.47953	-674.72753	-49.33185	1438.56725	-484.02274	-44.89121	1440.57409	-533.09430	-140.13138	1352.59280	-269.11751	-261.27970	1165.14208	-289.37821	-234.55212	1179.78270	-218.86398	-112.37412	1103.95391	-238.02628	-9.95163	1040.40146	-268.52214	-15.79856	1007.27164	-256.01563	-99.06184	1383.97537	-756.89328	-219.18420	1176.81699	-818.80212	-154.61476	1207.91739	-865.16520	-87.97271	1180.23202	-782.05683	-7.18816	1127.69244	-671.55170	10.70511	1108.77938	-694.67101	-247.19434	961.50281	-432.26465	-255.99661	992.62639	-636.18045	-229.70471	950.48978	-443.99378	-255.05314	995.10028	-600.57809	
151	1.50000000	-217.40116	571.55357	-370.22235	-172.06352	506.05767	-378.34527	-225.42543	164.09952	-353.36726	-295.02076	175.92437	-392.50513	-162.03811	59.59057	-334.36680	-103.39380	64.36818	-384.83669	-193.44118	631.09652	-751.69401	-164.47428	537.22717	-775.19776	-261.57220	234.97373	-776.09175	-328.05384	222.07280	-720.85638	-188.04056	132.73007	-818.11401	-132.65757	151.01224	-777.66479	-190.49204	395.44452	-346.19113	-252.53401	519.10015	-354.30742	-263.60169	406.25306	-342.70934	-251.07401	558.34878	-763.95365	-269.82545	438.23954	-780.10375	-175.90277	888.57959	-352.13652	-175.66564	775.83383	-354.28533	-234.48516	751.36785	-335.20997	-289.26656	885.08057	-357.54205	-284.03105	767.95455	-356.84416	-210.04647	907.59608	-761.88853	-173.35975	773.77508	-758.90466	-314.70240	875.43586	-716.61836	-272.64372	742.20523	-729.92840	-147.24398	1043.60129	-401.37852	-327.74954	1120.03318	-461.17566	-165.73022	1075.11479	-646.72246	-344.90207	1145.66060	-554.19018	-183.04368	1529.14546	-517.05871	-102.84419	1483.84927	-349.54393	-107.48287	1482.71554	-674.96069	-50.14840	1457.96675	-483.70637	-46.79840	1459.07737	-534.01644	-142.79483	1370.56279	-270.07515	-265.17832	1183.79508	-297.12197	-242.81315	1196.73313	-224.26137	-124.25057	1112.87207	-238.76369	-25.47660	1042.59139	-266.38619	-33.46992	1010.33671	-253.03343	-101.27730	1399.04718	-755.48392	-219.49735	1188.44731	-808.05958	-157.14895	1218.79136	-857.46356	-89.87746	1190.44675	-774.52713	-8.00467	1137.44417	-665.62823	9.34099	1118.32735	-689.10156	-238.07199	981.26286	-429.90791	-251.51555	1012.98976	-633.48162	-221.40398	972.79792	-442.04417	-250.05848	1015.63774	-597.41143	
